<svg id="Layer_1" data-name="Layer 1" xmlns="http://www.w3.org/2000/svg" viewBox="0 0 403 37.84"><defs><style>.cls-1{fill:#999;stroke:#fff;stroke-miterlimit:10;stroke-width:0.6px;}.cls-2{fill:none;stroke:#999;stroke-linecap:round;stroke-linejoin:round;}.cls-3{fill:gray;}</style></defs><path class="cls-1" d="M107.79,0a6.24,6.24,0,0,0-3.62,11.32V8.51a4.28,4.28,0,1,1,7.23,0v2.81A6.23,6.23,0,0,0,107.79,0Zm0,4.6a3,3,0,0,0-3,3v8a3.31,3.31,0,0,0-1.64-1.32,2.76,2.76,0,0,0-2.14.37,3.23,3.23,0,0,0-1.38,1.67,3.9,3.9,0,0,0,.3,2.48,41.77,41.77,0,0,0,6.42,11.14,1,1,0,0,0,.74.34H116a1,1,0,0,0,.58-.2A8.45,8.45,0,0,0,119,26.57a19.31,19.31,0,0,0,1.38-4.77,11.36,11.36,0,0,0-.1-4.6,3.57,3.57,0,0,0-2.89-2.75,6,6,0,0,0-.75.06,2.44,2.44,0,0,0-.73-.87,2.63,2.63,0,0,0-1.61-.5,2,2,0,0,0-1,.29A2.65,2.65,0,0,0,113,13a2.73,2.73,0,0,0-1.61-.51,3.61,3.61,0,0,0-.66.08v-5A3,3,0,0,0,107.79,4.6Zm0,2a1,1,0,0,1,1,1v6.9a1,1,0,0,0,1.88.42.91.91,0,0,1,1.2-.28c.12.08.21.13.21.52a1,1,0,0,0,.76,1,1,1,0,0,0,1.1-.52c.26-.53.43-.47.88-.3.13.1.21.15.21.52a1,1,0,0,0,.6.89,1,1,0,0,0,1-.18s.44-.11.6-.06c.61.1.91.44,1.16,1.33a9.42,9.42,0,0,1,0,3.75,17,17,0,0,1-1.25,4.27,7.7,7.7,0,0,1-1.64,2.48h-8c-1.84-2.49-6.07-9.18-6.05-11.46a1.22,1.22,0,0,1,1.09-.68,2.07,2.07,0,0,1,1,1.1l1.3,2.61a1,1,0,0,0,1.11.52,1,1,0,0,0,.76-1V7.55a1,1,0,0,1,1-1Z"/><polyline class="cls-2" points="140.49 13.22 144.71 17.44 140.56 21.6"/><line class="cls-2" x1="144.71" y1="17.44" x2="129.6" y2="17.44"/><polyline class="cls-2" points="76.83 21.6 72.61 17.38 76.77 13.22"/><line class="cls-2" x1="72.61" y1="17.38" x2="87.72" y2="17.38"/><path class="cls-3" d="M173.83,14.2a2.33,2.33,0,0,1,.87,2,2.45,2.45,0,0,1-.9,2.08,3.89,3.89,0,0,1-2.41.68h-1.08v3.14h-1.18V13.53h2.25A3.88,3.88,0,0,1,173.83,14.2Zm-.92,3.41a1.65,1.65,0,0,0,.54-1.42,1.56,1.56,0,0,0-.54-1.33,2.55,2.55,0,0,0-1.55-.41h-1.05V18h1A2.58,2.58,0,0,0,172.91,17.61Z"/><path class="cls-3" d="M179.64,15.47l-.21,1.11a3,3,0,0,0-.57-.07,1.22,1.22,0,0,0-1,.45,3.3,3.3,0,0,0-.58,1.39v3.73h-1.14V15.54h1l.11,1.33a2.37,2.37,0,0,1,.71-1.1,1.55,1.55,0,0,1,1-.38A2.61,2.61,0,0,1,179.64,15.47Z"/><path class="cls-3" d="M185.3,16.31a3.79,3.79,0,0,1,.76,2.5,4.4,4.4,0,0,1-.35,1.79,2.64,2.64,0,0,1-1,1.2,2.78,2.78,0,0,1-1.57.43,2.61,2.61,0,0,1-2.14-.92,3.71,3.71,0,0,1-.77-2.49,4.33,4.33,0,0,1,.34-1.79,2.81,2.81,0,0,1,1-1.21,2.87,2.87,0,0,1,1.58-.43A2.65,2.65,0,0,1,185.3,16.31Zm-3.84,2.51q0,2.49,1.68,2.49c1.13,0,1.69-.83,1.69-2.5s-.56-2.5-1.67-2.5S181.46,17.15,181.46,18.82Z"/><path class="cls-3" d="M191.82,15.54v.87l-3.41,4.72h3.45l-.14.95h-4.6v-.85l3.4-4.72H187.4v-1Z"/><path class="cls-3" d="M194.67,12.77v9.31h-1.14V12.91Zm3.77,2.77L196,18.43l2.68,3.65h-1.37l-2.59-3.57,2.41-3Z"/><path class="cls-3" d="M204.5,16.31a3.79,3.79,0,0,1,.76,2.5,4.24,4.24,0,0,1-.35,1.79,2.64,2.64,0,0,1-1,1.2,2.77,2.77,0,0,1-1.56.43,2.63,2.63,0,0,1-2.15-.92,3.71,3.71,0,0,1-.77-2.49,4.18,4.18,0,0,1,.35-1.79,2.72,2.72,0,0,1,1-1.21,2.89,2.89,0,0,1,1.58-.43A2.64,2.64,0,0,1,204.5,16.31Zm-3.84,2.51c0,1.66.56,2.49,1.69,2.49s1.68-.83,1.68-2.5-.56-2.5-1.67-2.5S200.66,17.15,200.66,18.82Z"/><path class="cls-3" d="M212.14,22.08h-1l-.09-1a2.42,2.42,0,0,1-.86.88,2.25,2.25,0,0,1-1.17.28,1.75,1.75,0,0,1-1.35-.52,2.11,2.11,0,0,1-.48-1.48V15.54h1.14v4.57a1.47,1.47,0,0,0,.24.95.94.94,0,0,0,.77.28A2,2,0,0,0,211,20.21V15.54h1.14Z"/><path class="cls-3" d="M222.48,15.93a2.12,2.12,0,0,1,.48,1.46v4.69h-1.14V17.55c0-.84-.31-1.26-.92-1.26a1.24,1.24,0,0,0-.82.28,3.84,3.84,0,0,0-.72.87v4.64h-1.14V17.55c0-.84-.31-1.26-.92-1.26a1.23,1.23,0,0,0-.83.28,4,4,0,0,0-.71.87v4.64h-1.14V15.54h1l.1,1a2.2,2.2,0,0,1,1.89-1.11,1.66,1.66,0,0,1,1.65,1.18,3,3,0,0,1,.85-.87,1.9,1.9,0,0,1,1.1-.31A1.65,1.65,0,0,1,222.48,15.93Z"/><path class="cls-3" d="M230.3,19.2h-4.17a2.58,2.58,0,0,0,.54,1.59,1.59,1.59,0,0,0,1.22.51,2.48,2.48,0,0,0,.87-.14,3.48,3.48,0,0,0,.83-.43l.5.68a3.62,3.62,0,0,1-2.29.82,2.67,2.67,0,0,1-2.13-.89,3.73,3.73,0,0,1-.76-2.46,4.67,4.67,0,0,1,.33-1.81,2.86,2.86,0,0,1,.94-1.23,2.38,2.38,0,0,1,1.45-.45,2.44,2.44,0,0,1,2,.86,3.68,3.68,0,0,1,.69,2.37C230.32,18.81,230.31,19,230.3,19.2Zm-1.11-.91a2.47,2.47,0,0,0-.38-1.48,1.36,1.36,0,0,0-1.16-.51c-.93,0-1.44.69-1.52,2.06h3.06Z"/><path class="cls-3" d="M233.39,21.69a3.89,3.89,0,0,1-.23,1.45,2.08,2.08,0,0,1-.65.89,6.37,6.37,0,0,1-1.19.69l-.34-.84a3.2,3.2,0,0,0,.74-.44,1.28,1.28,0,0,0,.4-.61,3.7,3.7,0,0,0,.13-1.07V15.54h1.14Zm0-9.06a.72.72,0,0,1,.22.55.75.75,0,0,1-.22.56.89.89,0,0,1-1.15,0,.75.75,0,0,1-.23-.56.73.73,0,0,1,.23-.55.83.83,0,0,1,1.15,0Z"/><path class="cls-3" d="M243.76,15.93a2.05,2.05,0,0,1,.5,1.46v4.69h-1.14V17.55a1.48,1.48,0,0,0-.26-1,1,1,0,0,0-.77-.28,1.55,1.55,0,0,0-.92.29,3.22,3.22,0,0,0-.74.86v4.64h-1.15V15.54h1l.1,1a2.61,2.61,0,0,1,.87-.82,2.2,2.2,0,0,1,1.13-.3A1.82,1.82,0,0,1,243.76,15.93Z"/><path class="cls-3" d="M251.6,19.2h-4.17a2.58,2.58,0,0,0,.54,1.59,1.59,1.59,0,0,0,1.22.51,2.48,2.48,0,0,0,.87-.14,3.48,3.48,0,0,0,.83-.43l.5.68a3.62,3.62,0,0,1-2.29.82,2.67,2.67,0,0,1-2.13-.89,3.68,3.68,0,0,1-.76-2.46,4.67,4.67,0,0,1,.33-1.81,2.86,2.86,0,0,1,.94-1.23,2.38,2.38,0,0,1,1.45-.45,2.44,2.44,0,0,1,2,.86,3.68,3.68,0,0,1,.69,2.37C251.62,18.81,251.61,19,251.6,19.2Zm-1.11-.91a2.47,2.47,0,0,0-.38-1.48A1.36,1.36,0,0,0,249,16.3c-.93,0-1.44.69-1.52,2.06h3.06Z"/><path class="cls-3" d="M254.69,21.69a3.89,3.89,0,0,1-.23,1.45,2.17,2.17,0,0,1-.65.89,6.18,6.18,0,0,1-1.2.69l-.33-.84a3.2,3.2,0,0,0,.74-.44,1.28,1.28,0,0,0,.4-.61,3.7,3.7,0,0,0,.13-1.07V15.54h1.14Zm0-9.06a.72.72,0,0,1,.22.55.75.75,0,0,1-.22.56.81.81,0,0,1-.58.21.77.77,0,0,1-.57-.21.75.75,0,0,1-.23-.56.73.73,0,0,1,.23-.55.75.75,0,0,1,.57-.23A.78.78,0,0,1,254.7,12.63Z"/><path class="cls-3" d="M261.64,15.93a2,2,0,0,1,.51,1.46v4.69H261V17.55a1.42,1.42,0,0,0-.27-1,1,1,0,0,0-.76-.28,1.53,1.53,0,0,0-.92.29,3.07,3.07,0,0,0-.75.86v4.64h-1.14V15.54h1l.1,1a2.59,2.59,0,0,1,.86-.82,2.23,2.23,0,0,1,1.14-.3A1.8,1.8,0,0,1,261.64,15.93Z"/><path class="cls-3" d="M269.17,16.31a3.79,3.79,0,0,1,.76,2.5,4.4,4.4,0,0,1-.35,1.79,2.64,2.64,0,0,1-1,1.2,2.78,2.78,0,0,1-1.57.43,2.61,2.61,0,0,1-2.14-.92,3.71,3.71,0,0,1-.77-2.49,4.33,4.33,0,0,1,.34-1.79,2.81,2.81,0,0,1,1-1.21,2.87,2.87,0,0,1,1.58-.43A2.65,2.65,0,0,1,269.17,16.31Zm-3.85,2.51c0,1.66.57,2.49,1.69,2.49s1.69-.83,1.69-2.5-.56-2.5-1.67-2.5S265.32,17.15,265.32,18.82Z"/><path class="cls-3" d="M276.69,15.54l-2.22,6.54h-1.38l-2.25-6.54h1.24l1.71,5.53,1.7-5.53Z"/><path class="cls-3" d="M283,19.2h-4.17a2.58,2.58,0,0,0,.54,1.59,1.59,1.59,0,0,0,1.22.51,2.48,2.48,0,0,0,.87-.14,3.48,3.48,0,0,0,.83-.43l.5.68a3.62,3.62,0,0,1-2.29.82,2.67,2.67,0,0,1-2.13-.89,3.68,3.68,0,0,1-.76-2.46,4.67,4.67,0,0,1,.33-1.81,2.86,2.86,0,0,1,.94-1.23,2.38,2.38,0,0,1,1.45-.45,2.44,2.44,0,0,1,2,.86,3.68,3.68,0,0,1,.69,2.37C283,18.81,283,19,283,19.2Zm-1.06-6.86.49.56-1.68,1.4H280l-1.68-1.4.49-.56,1.57,1Zm-.05,5.95a2.47,2.47,0,0,0-.38-1.48,1.36,1.36,0,0,0-1.16-.51c-.93,0-1.44.69-1.52,2.06h3.06Z"/><path class="cls-3" d="M286.08,21.69a3.89,3.89,0,0,1-.23,1.45,2.08,2.08,0,0,1-.65.89,6.18,6.18,0,0,1-1.2.69l-.33-.84a3.2,3.2,0,0,0,.74-.44,1.28,1.28,0,0,0,.4-.61,3.7,3.7,0,0,0,.13-1.07V15.54h1.14Zm0-9.06a.72.72,0,0,1,.22.55.75.75,0,0,1-.22.56.81.81,0,0,1-.58.21.79.79,0,0,1-.57-.21.75.75,0,0,1-.23-.56.73.73,0,0,1,.23-.55.76.76,0,0,1,.57-.23A.78.78,0,0,1,286.09,12.63Z"/><path class="cls-3" d="M291.54,15.58a3.67,3.67,0,0,1,1,.56l-.49.72a3.71,3.71,0,0,0-.85-.42,2.41,2.41,0,0,0-.85-.14,1.53,1.53,0,0,0-.88.23.79.79,0,0,0,0,1.25,3.59,3.59,0,0,0,1.1.43,3.81,3.81,0,0,1,1.63.75,1.61,1.61,0,0,1,.54,1.29,1.67,1.67,0,0,1-.75,1.47,3.18,3.18,0,0,1-1.83.51,3.62,3.62,0,0,1-2.47-.85l.61-.7a3,3,0,0,0,1.84.63,1.79,1.79,0,0,0,1-.26.85.85,0,0,0,.38-.73,1,1,0,0,0-.14-.54,1.07,1.07,0,0,0-.47-.36,7.26,7.26,0,0,0-1-.33,3.32,3.32,0,0,1-1.51-.73,1.58,1.58,0,0,1-.46-1.17,1.53,1.53,0,0,1,.3-.92,2,2,0,0,1,.85-.65,3.07,3.07,0,0,1,1.21-.23A3.77,3.77,0,0,1,291.54,15.58Zm.46-3.24.48.56-1.67,1.4h-.76l-1.69-1.4.5-.56,1.56,1Z"/><path class="cls-3" d="M296,12.14l.51,1-2.63,1.06-.35-.6Zm-.41,3.4v6.54h-1.14V15.54Z"/><path class="cls-3" d="M305,15.56a3,3,0,0,1,.93.54l-.55.72a3,3,0,0,0-.67-.37,2.38,2.38,0,0,0-.73-.11,1.41,1.41,0,0,0-1.23.63,3.23,3.23,0,0,0-.44,1.87,3.09,3.09,0,0,0,.43,1.83,1.43,1.43,0,0,0,1.24.59,2.3,2.3,0,0,0,.71-.11,4.26,4.26,0,0,0,.72-.38l.52.74a3.11,3.11,0,0,1-2,.72,2.63,2.63,0,0,1-2.09-.89,3.69,3.69,0,0,1-.76-2.47,4.53,4.53,0,0,1,.34-1.83,2.84,2.84,0,0,1,1-1.21,2.64,2.64,0,0,1,1.52-.44A3.29,3.29,0,0,1,305,15.56Zm.53-3.22.49.56-1.68,1.4h-.76l-1.68-1.4.49-.56,1.57,1Z"/><path class="cls-3" d="M309.13,12.14l.51,1L307,14.16l-.34-.6Zm-.41,3.4v6.54h-1.14V15.54Z"/><path class="cls-3" d="M314.18,15.58a3.67,3.67,0,0,1,1,.56l-.49.72a3.93,3.93,0,0,0-.85-.42,2.41,2.41,0,0,0-.85-.14,1.53,1.53,0,0,0-.88.23.79.79,0,0,0,0,1.25,3.48,3.48,0,0,0,1.1.43,3.81,3.81,0,0,1,1.63.75,1.61,1.61,0,0,1,.54,1.29,1.67,1.67,0,0,1-.75,1.47,3.18,3.18,0,0,1-1.83.51,3.62,3.62,0,0,1-2.47-.85l.61-.7a3,3,0,0,0,1.84.63,1.79,1.79,0,0,0,1-.26.85.85,0,0,0,.38-.73,1,1,0,0,0-.14-.54,1.07,1.07,0,0,0-.47-.36,7.26,7.26,0,0,0-1-.33,3.32,3.32,0,0,1-1.51-.73,1.58,1.58,0,0,1-.46-1.17,1.53,1.53,0,0,1,.3-.92,2,2,0,0,1,.84-.65,3.14,3.14,0,0,1,1.21-.23A3.79,3.79,0,0,1,314.18,15.58Z"/><path class="cls-3" d="M317.42,21.85a1.46,1.46,0,0,1-.36-1.06V12.91l1.14-.14v8a.66.66,0,0,0,.09.39.37.37,0,0,0,.32.13,1.08,1.08,0,0,0,.42-.08l.3.8a1.86,1.86,0,0,1-.91.22A1.31,1.31,0,0,1,317.42,21.85Z"/><path class="cls-3" d="M325.36,21.15a.92.92,0,0,0,.41.29l-.26.79a1.73,1.73,0,0,1-.82-.28,1.35,1.35,0,0,1-.46-.7,2.18,2.18,0,0,1-2,1,2.09,2.09,0,0,1-1.52-.54,1.93,1.93,0,0,1-.56-1.43,1.86,1.86,0,0,1,.75-1.6,3.53,3.53,0,0,1,2.13-.56h1v-.49a1.28,1.28,0,0,0-.33-1,1.51,1.51,0,0,0-1-.3,5.79,5.79,0,0,0-1.76.35l-.29-.83a6.52,6.52,0,0,1,2.26-.45,2.37,2.37,0,0,1,1.73.57,2.15,2.15,0,0,1,.57,1.61v3A1.05,1.05,0,0,0,325.36,21.15Zm-1.28-.79v-1.5h-.85c-1.21,0-1.81.44-1.81,1.34a1.22,1.22,0,0,0,.28.88,1.1,1.1,0,0,0,.84.3A1.7,1.7,0,0,0,324.08,20.36Z"/></svg>