<svg id="Layer_1" data-name="Layer 1" xmlns="http://www.w3.org/2000/svg" viewBox="0 0 403 48.91"><defs><style>.cls-1{fill:gray;stroke:#fff;stroke-miterlimit:10;stroke-width:0.5px;}.cls-2{fill:none;stroke:gray;stroke-linecap:round;stroke-linejoin:round;}.cls-3{fill:#666;}</style></defs><path class="cls-1" d="M108.33,11.06a5.53,5.53,0,0,0-3.2,10V18.6a3.72,3.72,0,0,1-.58-2,3.79,3.79,0,1,1,7,2v2.5a5.53,5.53,0,0,0-3.2-10Zm0,4.08a2.64,2.64,0,0,0-2.62,2.62v7.07a2.94,2.94,0,0,0-1.45-1.17,2.45,2.45,0,0,0-1.9.33,2.85,2.85,0,0,0-1.22,1.48,3.44,3.44,0,0,0,.27,2.2,36.73,36.73,0,0,0,5.68,9.87.89.89,0,0,0,.66.3h7.86a.9.9,0,0,0,.52-.17,7.52,7.52,0,0,0,2.16-3.06,16.81,16.81,0,0,0,1.23-4.23,10,10,0,0,0-.09-4.07,3.16,3.16,0,0,0-2.56-2.44,3.52,3.52,0,0,0-.66.06,2.13,2.13,0,0,0-.66-.78,2.3,2.3,0,0,0-1.41-.44,1.86,1.86,0,0,0-.86.25,2,2,0,0,0-.32-.38,2.4,2.4,0,0,0-1.43-.46,2.25,2.25,0,0,0-.58.08V17.76A2.63,2.63,0,0,0,108.33,15.14Zm0,1.74a.86.86,0,0,1,.88.88v6.11a.9.9,0,0,0,.68.86.91.91,0,0,0,1-.49.8.8,0,0,1,1.06-.25c.11.07.19.12.19.46a.91.91,0,0,0,.67.86.9.9,0,0,0,1-.47c.23-.47.38-.41.77-.26.12.08.2.13.2.45a.91.91,0,0,0,.52.8.9.9,0,0,0,.94-.16s.39-.1.53-.05c.54.08.8.39,1,1.17a8.47,8.47,0,0,1,0,3.33,15.47,15.47,0,0,1-1.11,3.78,6.7,6.7,0,0,1-1.45,2.2h-7c-1.63-2.21-5.39-8.14-5.37-10.16a1.09,1.09,0,0,1,1-.6c.47.24.58.48.86,1l1.15,2.31a.91.91,0,0,0,1,.46.9.9,0,0,0,.67-.85V17.76a.85.85,0,0,1,.87-.88Z"/><polyline class="cls-2" points="137.32 22.78 141.06 26.52 137.37 30.2"/><line class="cls-2" x1="141.06" y1="26.52" x2="127.67" y2="26.52"/><polyline class="cls-2" points="80.9 30.2 77.16 26.46 80.84 22.78"/><line class="cls-2" x1="77.16" y1="26.46" x2="90.55" y2="26.46"/><path class="cls-3" d="M175.48,22.64a2.11,2.11,0,0,1,.81,1.81,2.25,2.25,0,0,1-.81,1.9,3.47,3.47,0,0,1-2.17.63h-.89v2.65H171V22h2.24A3.67,3.67,0,0,1,175.48,22.64Zm-1.1,2.93a1.39,1.39,0,0,0,.39-1.12c0-.9-.52-1.35-1.57-1.35h-.78v2.79h.78A1.82,1.82,0,0,0,174.38,25.57Z"/><path class="cls-3" d="M180.66,23.74l-.24,1.36a2.37,2.37,0,0,0-.52-.06,1,1,0,0,0-.82.36,3,3,0,0,0-.47,1.13v3.1H177.2V23.81h1.22l.14,1.15a2.09,2.09,0,0,1,.6-1,1.36,1.36,0,0,1,.91-.34A2.16,2.16,0,0,1,180.66,23.74Z"/><path class="cls-3" d="M185.59,24.47a3.3,3.3,0,0,1,.72,2.25,3.73,3.73,0,0,1-.33,1.61,2.43,2.43,0,0,1-.94,1.08,2.71,2.71,0,0,1-1.47.39,2.56,2.56,0,0,1-2-.82,3.32,3.32,0,0,1-.73-2.26,3.7,3.7,0,0,1,.33-1.61,2.56,2.56,0,0,1,1-1.08,2.82,2.82,0,0,1,1.47-.38A2.52,2.52,0,0,1,185.59,24.47Zm-3.27,2.25a2.85,2.85,0,0,0,.31,1.52,1.15,1.15,0,0,0,1.88,0,2.89,2.89,0,0,0,.32-1.52,2.83,2.83,0,0,0-.32-1.51,1,1,0,0,0-.93-.49C182.74,24.72,182.32,25.38,182.32,26.72Z"/><path class="cls-3" d="M191.33,23.81v1l-2.82,3.7h2.87l-.14,1.1h-4.35v-1l2.83-3.71h-2.58v-1.1Z"/><path class="cls-3" d="M193.89,21.33v8.3h-1.41V21.48Zm3.49,2.48-1.94,2.57,2.12,3.25H196l-2-3.18,1.94-2.64Z"/><path class="cls-3" d="M202.62,24.47a3.3,3.3,0,0,1,.72,2.25,3.73,3.73,0,0,1-.33,1.61,2.45,2.45,0,0,1-.95,1.08,2.68,2.68,0,0,1-1.46.39,2.56,2.56,0,0,1-2-.82,3.27,3.27,0,0,1-.73-2.26,3.7,3.7,0,0,1,.33-1.61,2.56,2.56,0,0,1,.95-1.08,2.82,2.82,0,0,1,1.47-.38A2.52,2.52,0,0,1,202.62,24.47Zm-3.27,2.25a2.85,2.85,0,0,0,.31,1.52,1.15,1.15,0,0,0,1.88,0,2.9,2.9,0,0,0,.31-1.52,2.84,2.84,0,0,0-.31-1.51,1,1,0,0,0-.93-.49C199.77,24.72,199.35,25.38,199.35,26.72Z"/><path class="cls-3" d="M209.31,29.63h-1.22l-.08-.81a2.2,2.2,0,0,1-.75.74,2.09,2.09,0,0,1-1,.24,1.51,1.51,0,0,1-1.2-.48A2,2,0,0,1,204.6,28V23.81H206v4a1.14,1.14,0,0,0,.17.7.68.68,0,0,0,.55.21,1.41,1.41,0,0,0,1.17-.82v-4.1h1.41Z"/><path class="cls-3" d="M218.3,24.13a1.89,1.89,0,0,1,.42,1.29v4.21h-1.41v-4c0-.62-.21-.93-.64-.93a.89.89,0,0,0-.59.21,2.68,2.68,0,0,0-.51.67v4h-1.41v-4q0-.93-.63-.93a.88.88,0,0,0-.6.21,2.47,2.47,0,0,0-.52.67v4H211V23.81h1.22l.11.76a2,2,0,0,1,1.68-.92,1.47,1.47,0,0,1,.87.26,1.41,1.41,0,0,1,.54.72,2.64,2.64,0,0,1,.77-.73,1.88,1.88,0,0,1,1-.25A1.41,1.41,0,0,1,218.3,24.13Z"/><path class="cls-3" d="M225.1,27.16h-3.65a1.83,1.83,0,0,0,.44,1.21,1.34,1.34,0,0,0,1,.36,2,2,0,0,0,.72-.13,3.08,3.08,0,0,0,.73-.39l.58.81a3.36,3.36,0,0,1-2.16.78A2.58,2.58,0,0,1,220.7,29a3.22,3.22,0,0,1-.72-2.22,3.94,3.94,0,0,1,.31-1.6,2.59,2.59,0,0,1,.89-1.11,2.67,2.67,0,0,1,3.28.37,3.2,3.2,0,0,1,.67,2.17Q225.13,26.7,225.1,27.16Zm-1.37-1c0-1-.37-1.53-1.13-1.53a1,1,0,0,0-.81.38,2.25,2.25,0,0,0-.34,1.22h2.28Z"/><path class="cls-3" d="M227.79,29.12a3.31,3.31,0,0,1-.25,1.4,2.13,2.13,0,0,1-.69.87,5.8,5.8,0,0,1-1.18.63l-.45-1a3.84,3.84,0,0,0,.67-.39,1.3,1.3,0,0,0,.37-.53,2.63,2.63,0,0,0,.12-.88V23.81h1.41Zm-.07-8a.82.82,0,0,1,.25.61.79.79,0,0,1-.25.61.88.88,0,0,1-.64.24.89.89,0,0,1-.64-.24.82.82,0,0,1-.24-.61.85.85,0,0,1,.24-.61.89.89,0,0,1,.64-.24A.88.88,0,0,1,227.72,21.11Z"/><path class="cls-3" d="M236.55,24.12a1.83,1.83,0,0,1,.44,1.3v4.21h-1.41v-4a1.15,1.15,0,0,0-.18-.73.66.66,0,0,0-.53-.2,1,1,0,0,0-.66.22,2.76,2.76,0,0,0-.57.66v4h-1.4V23.81h1.22l.11.76a2.16,2.16,0,0,1,1.77-.92A1.57,1.57,0,0,1,236.55,24.12Z"/><path class="cls-3" d="M243.37,27.16h-3.65a1.83,1.83,0,0,0,.44,1.21,1.37,1.37,0,0,0,1,.36,2,2,0,0,0,.72-.13,3.08,3.08,0,0,0,.73-.39l.58.81a3.34,3.34,0,0,1-2.16.78A2.58,2.58,0,0,1,239,29a3.22,3.22,0,0,1-.72-2.22,4.11,4.11,0,0,1,.31-1.6,2.59,2.59,0,0,1,.89-1.11,2.67,2.67,0,0,1,3.28.37,3.2,3.2,0,0,1,.67,2.17Q243.4,26.7,243.37,27.16Zm-1.37-1c0-1-.37-1.53-1.13-1.53a1,1,0,0,0-.81.38,2.25,2.25,0,0,0-.34,1.22H242Z"/><path class="cls-3" d="M246.06,29.12a3.49,3.49,0,0,1-.24,1.4,2.23,2.23,0,0,1-.7.87,5.8,5.8,0,0,1-1.18.63l-.45-1a3.84,3.84,0,0,0,.67-.39,1.3,1.3,0,0,0,.37-.53,2.63,2.63,0,0,0,.12-.88V23.81h1.41Zm-.07-8a.82.82,0,0,1,.25.61.79.79,0,0,1-.25.61.88.88,0,0,1-.64.24.85.85,0,0,1-.63-.24.79.79,0,0,1-.25-.61.82.82,0,0,1,.25-.61.85.85,0,0,1,.63-.24A.88.88,0,0,1,246,21.11Z"/><path class="cls-3" d="M252.07,24.12a1.83,1.83,0,0,1,.44,1.3v4.21H251.1v-4a1.15,1.15,0,0,0-.18-.73.66.66,0,0,0-.53-.2,1.05,1.05,0,0,0-.66.22,2.76,2.76,0,0,0-.57.66v4h-1.4V23.81H249l.11.76a2.16,2.16,0,0,1,1.77-.92A1.57,1.57,0,0,1,252.07,24.12Z"/><path class="cls-3" d="M258.53,24.47a3.3,3.3,0,0,1,.72,2.25,3.73,3.73,0,0,1-.33,1.61,2.43,2.43,0,0,1-.94,1.08,2.71,2.71,0,0,1-1.47.39,2.56,2.56,0,0,1-2-.82,3.32,3.32,0,0,1-.73-2.26,3.7,3.7,0,0,1,.33-1.61,2.56,2.56,0,0,1,1-1.08,2.82,2.82,0,0,1,1.47-.38A2.52,2.52,0,0,1,258.53,24.47Zm-3.27,2.25a2.85,2.85,0,0,0,.31,1.52,1.15,1.15,0,0,0,1.88,0,2.89,2.89,0,0,0,.32-1.52,2.83,2.83,0,0,0-.32-1.51,1,1,0,0,0-.93-.49C255.68,24.72,255.26,25.38,255.26,26.72Z"/><path class="cls-3" d="M265.18,23.81l-1.89,5.82h-1.68l-1.93-5.82h1.53l1.24,4.69,1.28-4.69Z"/><path class="cls-3" d="M270.72,27.16h-3.65a1.88,1.88,0,0,0,.44,1.21,1.37,1.37,0,0,0,1,.36,2,2,0,0,0,.73-.13,2.86,2.86,0,0,0,.72-.39l.59.81a3.38,3.38,0,0,1-2.16.78,2.57,2.57,0,0,1-2.05-.82,3.22,3.22,0,0,1-.72-2.22,3.94,3.94,0,0,1,.31-1.6,2.52,2.52,0,0,1,.89-1.11,2.36,2.36,0,0,1,1.38-.4,2.4,2.4,0,0,1,1.9.77,3.25,3.25,0,0,1,.67,2.17C270.76,26.66,270.75,26.85,270.72,27.16Zm-1.06-6.33.54.62-1.53,1.37h-.88l-1.53-1.37.54-.62,1.43,1Zm-.3,5.35c0-1-.38-1.53-1.13-1.53a1,1,0,0,0-.81.38,2.24,2.24,0,0,0-.35,1.22h2.29Z"/><path class="cls-3" d="M273.42,29.12a3.31,3.31,0,0,1-.25,1.4,2.15,2.15,0,0,1-.7.87,5.7,5.7,0,0,1-1.17.63l-.45-1a3.84,3.84,0,0,0,.67-.39,1.3,1.3,0,0,0,.37-.53,2.63,2.63,0,0,0,.12-.88V23.81h1.41Zm-.07-8a.86.86,0,0,1,.25.61.83.83,0,0,1-.25.61.9.9,0,0,1-.65.24.88.88,0,0,1-.63-.24.83.83,0,0,1-.25-.61.86.86,0,0,1,.25-.61.88.88,0,0,1,.63-.24A.9.9,0,0,1,273.35,21.11Z"/><path class="cls-3" d="M279,24.34l-.55.83a2.72,2.72,0,0,0-1.46-.48,1.17,1.17,0,0,0-.65.16.49.49,0,0,0-.23.43.58.58,0,0,0,.09.33,1,1,0,0,0,.36.24,4.8,4.8,0,0,0,.77.26,3.51,3.51,0,0,1,1.4.67,1.53,1.53,0,0,1,.46,1.17,1.57,1.57,0,0,1-.71,1.36,3,3,0,0,1-1.75.49,3.62,3.62,0,0,1-1.3-.22,3.26,3.26,0,0,1-1-.61l.71-.79a2.58,2.58,0,0,0,1.58.57,1.36,1.36,0,0,0,.75-.18.59.59,0,0,0,.28-.52.68.68,0,0,0-.1-.4.93.93,0,0,0-.37-.27c-.18-.07-.47-.17-.85-.28a2.82,2.82,0,0,1-1.31-.67,1.54,1.54,0,0,1-.41-1.09,1.43,1.43,0,0,1,.28-.87,1.89,1.89,0,0,1,.79-.6,2.87,2.87,0,0,1,1.17-.22A3.29,3.29,0,0,1,279,24.34Zm-.61-3.51.54.62-1.53,1.37h-.88L275,21.45l.54-.62,1.43,1Z"/><path class="cls-3" d="M281.89,20.61l.57,1.1-2.48,1-.4-.71Zm-.13,3.2v5.82h-1.41V23.81Z"/><path class="cls-3" d="M289.57,23.81a2.79,2.79,0,0,1,.87.52l-.63.85a2.38,2.38,0,0,0-.57-.32,1.74,1.74,0,0,0-.61-.1c-.87,0-1.31.66-1.31,2a2.49,2.49,0,0,0,.34,1.46,1.14,1.14,0,0,0,1,.44,1.7,1.7,0,0,0,.57-.09,5.32,5.32,0,0,0,.61-.32l.63.89a2.94,2.94,0,0,1-1.88.67,2.76,2.76,0,0,1-1.46-.37,2.46,2.46,0,0,1-.94-1.05,3.67,3.67,0,0,1-.33-1.61,3.83,3.83,0,0,1,.33-1.63,2.54,2.54,0,0,1,.94-1.1,2.63,2.63,0,0,1,1.44-.39A3,3,0,0,1,289.57,23.81Zm.4-3,.54.62L289,22.82h-.88l-1.52-1.37.53-.62,1.43,1Z"/><path class="cls-3" d="M293,20.61l.57,1.1-2.48,1-.4-.71Zm-.13,3.2v5.82h-1.41V23.81Z"/><path class="cls-3" d="M298.47,24.34l-.55.83a2.72,2.72,0,0,0-1.47-.48,1.2,1.2,0,0,0-.65.16.51.51,0,0,0-.23.43.59.59,0,0,0,.1.33,1,1,0,0,0,.36.24,5,5,0,0,0,.76.26,3.49,3.49,0,0,1,1.41.67,1.52,1.52,0,0,1,.45,1.17,1.56,1.56,0,0,1-.7,1.36,3,3,0,0,1-1.75.49,3.58,3.58,0,0,1-1.3-.22,3.15,3.15,0,0,1-1-.61l.7-.79a2.63,2.63,0,0,0,1.59.57,1.39,1.39,0,0,0,.75-.18.59.59,0,0,0,.28-.52.68.68,0,0,0-.1-.4.91.91,0,0,0-.38-.27c-.18-.07-.46-.17-.84-.28a2.82,2.82,0,0,1-1.31-.67,1.56,1.56,0,0,1-.14-2,2,2,0,0,1,.8-.6,2.87,2.87,0,0,1,1.17-.22A3.31,3.31,0,0,1,298.47,24.34Z"/><path class="cls-3" d="M300.12,29.41a1.54,1.54,0,0,1-.38-1.11V21.48l1.41-.15v6.93c0,.27.11.41.33.41a1,1,0,0,0,.33-.06l.3,1a2.33,2.33,0,0,1-.94.2A1.42,1.42,0,0,1,300.12,29.41Z"/><path class="cls-3" d="M307.39,28.59a.65.65,0,0,0,.34.25l-.3.94a1.72,1.72,0,0,1-.81-.25,1.22,1.22,0,0,1-.48-.6,1.78,1.78,0,0,1-.74.65,2.18,2.18,0,0,1-1,.22,1.9,1.9,0,0,1-1.38-.5,1.71,1.71,0,0,1-.5-1.29,1.66,1.66,0,0,1,.68-1.45,3.35,3.35,0,0,1,2-.5h.72v-.33a1,1,0,0,0-.26-.79,1.25,1.25,0,0,0-.83-.22,5,5,0,0,0-1.54.3l-.33-.95a5.88,5.88,0,0,1,2.12-.42c1.48,0,2.23.67,2.23,2v2.44A.91.91,0,0,0,307.39,28.59Zm-1.49-.53V26.88h-.58c-.91,0-1.36.34-1.36,1a.92.92,0,0,0,.2.65.78.78,0,0,0,.62.23A1.23,1.23,0,0,0,305.9,28.06Z"/></svg>