<svg id="Layer_1" data-name="Layer 1" xmlns="http://www.w3.org/2000/svg" viewBox="0 0 403 54.93"><defs><style>.cls-1,.cls-2{fill:#267080;}.cls-1{stroke:#fff;stroke-miterlimit:10;stroke-width:0.6px;opacity:0.1;}.cls-3{fill:none;stroke:#267080;stroke-linecap:round;stroke-linejoin:round;stroke-width:1.3px;}</style></defs><rect class="cls-1" x="56.01" width="297.09" height="39.22" rx="9"/><path class="cls-2" d="M117.45,9a6.75,6.75,0,1,0-11.12,5.12V11.69a5.12,5.12,0,1,1,8.75,0v2.47A6.77,6.77,0,0,0,117.45,9Z"/><path class="cls-2" d="M123.11,31.87a21.58,21.58,0,0,0,1.55-5.31,12.52,12.52,0,0,0-.11-5.06,3.74,3.74,0,0,0-3-2.89c-.2,0-.44,0-.66.05l-.32,0-.1-.18a2.49,2.49,0,0,0-.74-.88,2.67,2.67,0,0,0-1.63-.51,1.88,1.88,0,0,0-.95.29l-.22.11-.16-.19-.14-.19a1,1,0,0,0-.21-.24,2.69,2.69,0,0,0-1.64-.52,3,3,0,0,0-.68.08l-.36.08v-6a3,3,0,1,0-6.07,0v9.91l-.54-.72a3.41,3.41,0,0,0-1.7-1.39,2.49,2.49,0,0,0-.61-.08,3.18,3.18,0,0,0-1.57.47l-.1.09a3.1,3.1,0,0,0-1.32,1.62,4.06,4.06,0,0,0,.34,2.61c2.28,5.47,4.63,9.56,7.18,12.48a.81.81,0,0,0,.61.28h10a.77.77,0,0,0,.48-.16A9.06,9.06,0,0,0,123.11,31.87ZM119.7,34.1l-.09.08h-9.24l-.09-.12c-1.78-2.41-6.92-10.3-6.9-13.11v-.08l.05-.07a1.66,1.66,0,0,1,1.52-.91l.11,0a2.44,2.44,0,0,1,1.16,1.27l0,.09,1.48,3a.87.87,0,0,0,.91.43.86.86,0,0,0,.63-.8V10.53a1.42,1.42,0,1,1,2.83,0v7.78a.81.81,0,0,0,1.54.35,1.34,1.34,0,0,1,1.73-.48l.08,0c.24.17.35.34.35.83a.81.81,0,0,0,1.54.37c.38-.79.77-.71,1.35-.49l.08,0a.83.83,0,0,1,.37.82.81.81,0,0,0,1.36.59l.29-.27.08.16a1.16,1.16,0,0,1,.61,0c.87.13,1.22.75,1.49,1.7a11,11,0,0,1,.07,4.37,20.22,20.22,0,0,1-1.44,4.89A8.94,8.94,0,0,1,119.7,34.1Z"/><polyline class="cls-3" points="149.22 13.92 153.98 18.68 149.29 23.37"/><line class="cls-3" x1="153.98" y1="18.68" x2="136.93" y2="18.68"/><polyline class="cls-3" points="77.37 23.37 72.61 18.61 77.3 13.92"/><line class="cls-3" x1="72.61" y1="18.61" x2="89.66" y2="18.61"/><path class="cls-2" d="M186.85,15a2.62,2.62,0,0,1,1,2.24,2.77,2.77,0,0,1-1,2.35,4.43,4.43,0,0,1-2.72.77h-1.22v3.54h-1.33V14.27h2.54A4.47,4.47,0,0,1,186.85,15Zm-1,3.86a1.9,1.9,0,0,0,.61-1.61,1.78,1.78,0,0,0-.61-1.5,2.85,2.85,0,0,0-1.75-.46h-1.19v4H184A3,3,0,0,0,185.81,18.88Z"/><path class="cls-2" d="M193.41,16.46l-.24,1.26a2.47,2.47,0,0,0-.64-.09,1.37,1.37,0,0,0-1.11.51,3.73,3.73,0,0,0-.66,1.57v4.21h-1.29V16.54h1.11l.12,1.5a2.91,2.91,0,0,1,.8-1.25,1.8,1.8,0,0,1,1.18-.42A2.86,2.86,0,0,1,193.41,16.46Z"/><path class="cls-2" d="M199.79,17.41a4.29,4.29,0,0,1,.86,2.81,4.93,4.93,0,0,1-.39,2,3.06,3.06,0,0,1-1.14,1.36,3.15,3.15,0,0,1-1.76.48,2.94,2.94,0,0,1-2.42-1,4.22,4.22,0,0,1-.87-2.81,4.89,4.89,0,0,1,.39-2,3,3,0,0,1,1.13-1.36,3.15,3.15,0,0,1,1.78-.49A3,3,0,0,1,199.79,17.41Zm-4.34,2.83c0,1.88.64,2.81,1.91,2.81s1.9-.94,1.9-2.83-.63-2.81-1.89-2.81S195.45,18.35,195.45,20.24Z"/><path class="cls-2" d="M207.15,16.54v1l-3.85,5.32h3.89L207,23.92h-5.2V23l3.84-5.33h-3.52V16.54Z"/><path class="cls-2" d="M210.37,13.42v10.5h-1.29V13.57Zm4.25,3.12L211.9,19.8l3,4.12h-1.55l-2.92-4,2.71-3.35Z"/><path class="cls-2" d="M221.46,17.41a4.29,4.29,0,0,1,.86,2.81,4.93,4.93,0,0,1-.39,2,3.06,3.06,0,0,1-1.14,1.36,3.15,3.15,0,0,1-1.76.48,3,3,0,0,1-2.42-1,4.22,4.22,0,0,1-.87-2.81,4.89,4.89,0,0,1,.39-2,3,3,0,0,1,1.13-1.36,3.15,3.15,0,0,1,1.78-.49A3,3,0,0,1,221.46,17.41Zm-4.34,2.83c0,1.88.64,2.81,1.91,2.81s1.91-.94,1.91-2.83-.64-2.81-1.9-2.81S217.12,18.35,217.12,20.24Z"/><path class="cls-2" d="M230.08,23.92H229l-.1-1.15a2.78,2.78,0,0,1-1,1,2.62,2.62,0,0,1-1.33.31,2,2,0,0,1-1.51-.59,2.33,2.33,0,0,1-.55-1.66v-5.3h1.29V21.7a1.66,1.66,0,0,0,.27,1.07,1,1,0,0,0,.86.31,2.18,2.18,0,0,0,1.85-1.27V16.54h1.29Z"/><path class="cls-2" d="M241.75,17a2.37,2.37,0,0,1,.55,1.65v5.29H241V18.81c0-.95-.35-1.43-1-1.43a1.39,1.39,0,0,0-.92.32,4.33,4.33,0,0,0-.81,1v5.24H237V18.81c0-.95-.35-1.43-1-1.43a1.43,1.43,0,0,0-.94.32,4.83,4.83,0,0,0-.8,1v5.24h-1.29V16.54H234l.11,1.08a2.48,2.48,0,0,1,2.13-1.25,1.87,1.87,0,0,1,1.87,1.33,3.19,3.19,0,0,1,1-1,2.25,2.25,0,0,1,1.24-.35A1.88,1.88,0,0,1,241.75,17Z"/><path class="cls-2" d="M250.58,20.67h-4.71a2.89,2.89,0,0,0,.62,1.8,1.78,1.78,0,0,0,1.37.57,3.1,3.1,0,0,0,1-.15,4.48,4.48,0,0,0,.94-.49l.56.77a4.12,4.12,0,0,1-2.58.92,3,3,0,0,1-2.4-1,4.08,4.08,0,0,1-.86-2.77,5.19,5.19,0,0,1,.37-2,3.19,3.19,0,0,1,1.06-1.39,3,3,0,0,1,3.89.46A4.14,4.14,0,0,1,250.6,20C250.6,20.23,250.6,20.45,250.58,20.67Zm-1.25-1A2.73,2.73,0,0,0,248.9,18a1.55,1.55,0,0,0-1.31-.58c-1.05,0-1.63.78-1.72,2.33h3.46Z"/><path class="cls-2" d="M254.06,23.47a4.35,4.35,0,0,1-.25,1.64,2.51,2.51,0,0,1-.73,1,6.93,6.93,0,0,1-1.35.77l-.38-.94a3.88,3.88,0,0,0,.84-.49,1.61,1.61,0,0,0,.44-.69,3.88,3.88,0,0,0,.15-1.21v-7h1.28Zm0-10.22a.85.85,0,0,1,.25.63.81.81,0,0,1-.25.62.89.89,0,0,1-.66.25.84.84,0,0,1-.64-.25.82.82,0,0,1-.26-.62.86.86,0,0,1,.26-.63.84.84,0,0,1,.64-.25A.89.89,0,0,1,254.08,13.25Z"/><path class="cls-2" d="M264.61,16.56a3.31,3.31,0,0,1,1.05.61l-.61.81a3.4,3.4,0,0,0-.77-.41,2.35,2.35,0,0,0-.82-.13,1.61,1.61,0,0,0-1.39.71,3.73,3.73,0,0,0-.5,2.12,3.53,3.53,0,0,0,.49,2.06,1.63,1.63,0,0,0,1.4.67,2.53,2.53,0,0,0,.8-.13,4.36,4.36,0,0,0,.82-.43l.58.84a3.5,3.5,0,0,1-2.25.81,2.91,2.91,0,0,1-2.36-1,4.11,4.11,0,0,1-.86-2.78,5,5,0,0,1,.39-2.06,3.19,3.19,0,0,1,1.11-1.38,3,3,0,0,1,1.72-.49A3.77,3.77,0,0,1,264.61,16.56Z"/><path class="cls-2" d="M272.82,20.67h-4.7a2.89,2.89,0,0,0,.61,1.8,1.8,1.8,0,0,0,1.37.57,3.12,3.12,0,0,0,1-.15,4.42,4.42,0,0,0,.93-.49l.56.77a4.09,4.09,0,0,1-2.57.92,3,3,0,0,1-2.41-1,4.14,4.14,0,0,1-.86-2.77,5.38,5.38,0,0,1,.37-2,3.21,3.21,0,0,1,1.07-1.39,2.66,2.66,0,0,1,1.63-.51,2.74,2.74,0,0,1,2.26,1,4.14,4.14,0,0,1,.78,2.67Q272.85,20.34,272.82,20.67Zm-1.24-1a2.73,2.73,0,0,0-.44-1.67,1.53,1.53,0,0,0-1.3-.58c-1.06,0-1.63.78-1.72,2.33h3.46Z"/><path class="cls-2" d="M275.39,23.66a1.65,1.65,0,0,1-.41-1.19v-8.9l1.29-.15v9a.79.79,0,0,0,.1.45.43.43,0,0,0,.36.14,1.21,1.21,0,0,0,.48-.09l.33.9a2.06,2.06,0,0,1-1,.25A1.48,1.48,0,0,1,275.39,23.66Z"/><path class="cls-2" d="M282.11,24a5,5,0,0,1-1.21,2,3.71,3.71,0,0,1-2.22.91l-.14-1a4,4,0,0,0,1.16-.37,1.93,1.93,0,0,0,.69-.6,4.13,4.13,0,0,0,.49-1h-.44L278,16.54h1.38l2,6.44,1.93-6.44h1.34Zm.27-11.27.57,1.08L280,15l-.39-.69Z"/><path class="cls-2" d="M296,16.88a4.29,4.29,0,0,1-.92.18c-.34,0-.75,0-1.23,0a2,2,0,0,1,1.3,1.86,2.34,2.34,0,0,1-.76,1.81,3.33,3.33,0,0,1-3,.56.83.83,0,0,0-.26.3.81.81,0,0,0-.1.39c0,.4.32.6,1,.6h1.17a3.05,3.05,0,0,1,1.32.27,2.14,2.14,0,0,1,.89.72,1.83,1.83,0,0,1,.31,1.06,1.87,1.87,0,0,1-.88,1.66,4.78,4.78,0,0,1-2.58.58,5.61,5.61,0,0,1-1.88-.25,1.83,1.83,0,0,1-1-.73,2.5,2.5,0,0,1-.29-1.26h1.16a1.29,1.29,0,0,0,.17.7,1,1,0,0,0,.6.39,4.32,4.32,0,0,0,1.23.14,3.51,3.51,0,0,0,1.66-.29.92.92,0,0,0,.5-.86A.87.87,0,0,0,294,24a1.91,1.91,0,0,0-1.09-.27h-1.17a2.17,2.17,0,0,1-1.42-.4,1.25,1.25,0,0,1-.48-1,1.27,1.27,0,0,1,.21-.7,1.91,1.91,0,0,1,.6-.6,2.36,2.36,0,0,1-.94-.84,2.2,2.2,0,0,1-.31-1.21,2.43,2.43,0,0,1,.38-1.33,2.47,2.47,0,0,1,1-.92,3.16,3.16,0,0,1,1.45-.33,10.49,10.49,0,0,0,1.46-.06,4.9,4.9,0,0,0,1-.21c.26-.09.57-.22.94-.39Zm-4.88.87a2,2,0,0,0,0,2.41,1.44,1.44,0,0,0,1.15.46,1.48,1.48,0,0,0,1.15-.44,1.78,1.78,0,0,0,.4-1.24c0-1.1-.53-1.64-1.58-1.64A1.43,1.43,0,0,0,291.11,17.75Z"/><path class="cls-2" d="M301.4,16.46l-.24,1.26a2.47,2.47,0,0,0-.64-.09,1.37,1.37,0,0,0-1.11.51,3.73,3.73,0,0,0-.66,1.57v4.21h-1.29V16.54h1.11l.13,1.5a2.81,2.81,0,0,1,.79-1.25,1.8,1.8,0,0,1,1.18-.42A2.81,2.81,0,0,1,301.4,16.46Z"/><path class="cls-2" d="M307.65,22.87a.89.89,0,0,0,.46.32l-.29.9a2,2,0,0,1-.93-.32,1.49,1.49,0,0,1-.52-.79,2.47,2.47,0,0,1-2.2,1.11,2.31,2.31,0,0,1-1.72-.62,2.14,2.14,0,0,1-.63-1.61,2.1,2.1,0,0,1,.85-1.8,3.94,3.94,0,0,1,2.4-.63h1.13v-.55a1.44,1.44,0,0,0-.37-1.12,1.76,1.76,0,0,0-1.17-.34,6.34,6.34,0,0,0-2,.4l-.32-.94a7.4,7.4,0,0,1,2.55-.51,2.69,2.69,0,0,1,2,.64,2.42,2.42,0,0,1,.64,1.81V22.2A1.12,1.12,0,0,0,307.65,22.87ZM306.2,22v-1.7h-1c-1.37,0-2.05.51-2.05,1.51a1.43,1.43,0,0,0,.32,1,1.3,1.3,0,0,0,1,.33A1.91,1.91,0,0,0,306.2,22Z"/><path class="cls-2" d="M312,14.71a1.12,1.12,0,0,0-.25.81v1h1.79l-.14,1H311.7v6.38h-1.29V17.54h-1.32v-1h1.32v-1A2,2,0,0,1,311,14a2.34,2.34,0,0,1,1.7-.58,4.09,4.09,0,0,1,.9.09,4.15,4.15,0,0,1,.86.29l-.4.93a3.26,3.26,0,0,0-1.29-.28A1.16,1.16,0,0,0,312,14.71Z"/></svg>