<svg id="Layer_1" data-name="Layer 1" xmlns="http://www.w3.org/2000/svg" viewBox="0 0 403 54.93"><defs><style>.cls-1,.cls-2,.cls-4{fill:#267080;}.cls-1,.cls-2{stroke:#fff;stroke-miterlimit:10;stroke-width:0.6px;}.cls-1{opacity:0.1;}.cls-3{fill:none;stroke:#267080;stroke-linecap:round;stroke-linejoin:round;}</style></defs><rect class="cls-1" x="56.01" width="318.07" height="39.22" rx="9"/><path class="cls-2" d="M112.31,2a7,7,0,0,0-4.08,12.78V11.6a4.82,4.82,0,1,1,8.16,0v3.18A7,7,0,0,0,112.31,2Zm0,5.19A3.36,3.36,0,0,0,109,10.53v9a3.76,3.76,0,0,0-1.85-1.5,3.14,3.14,0,0,0-2.41.42,3.61,3.61,0,0,0-1.56,1.89,4.44,4.44,0,0,0,.34,2.8,47.23,47.23,0,0,0,7.24,12.57,1.12,1.12,0,0,0,.84.38h10a1.07,1.07,0,0,0,.66-.22A9.46,9.46,0,0,0,125,32a21.84,21.84,0,0,0,1.57-5.38,12.61,12.61,0,0,0-.12-5.19,4,4,0,0,0-3.25-3.11,5.62,5.62,0,0,0-.85.07,2.71,2.71,0,0,0-.83-1,3,3,0,0,0-1.81-.57,2.34,2.34,0,0,0-1.09.32,3.28,3.28,0,0,0-.4-.48,3.05,3.05,0,0,0-1.82-.58,3.57,3.57,0,0,0-.74.09V10.53A3.36,3.36,0,0,0,112.31,7.19Zm0,2.22a1.09,1.09,0,0,1,1.11,1.12v7.78a1.11,1.11,0,0,0,2.12.48,1,1,0,0,1,1.36-.33c.13.1.23.15.23.59a1.11,1.11,0,0,0,2.11.5c.29-.6.47-.53,1-.34.15.11.25.17.25.58a1.12,1.12,0,0,0,.67,1,1.13,1.13,0,0,0,1.19-.2s.5-.13.67-.07c.69.11,1,.5,1.31,1.5a10.9,10.9,0,0,1,.06,4.24A19.61,19.61,0,0,1,123,31.09a8.45,8.45,0,0,1-1.86,2.79h-9c-2.07-2.81-6.85-10.36-6.83-12.93a1.38,1.38,0,0,1,1.24-.76,2.32,2.32,0,0,1,1.09,1.24l1.47,2.94a1.11,1.11,0,0,0,2.11-.5V10.53a1.09,1.09,0,0,1,1.11-1.12Z"/><polyline class="cls-3" points="149.22 13.92 153.98 18.68 149.29 23.37"/><line class="cls-3" x1="153.98" y1="18.68" x2="136.93" y2="18.68"/><polyline class="cls-3" points="77.37 23.37 72.61 18.61 77.3 13.92"/><line class="cls-3" x1="72.61" y1="18.61" x2="89.66" y2="18.61"/><path class="cls-4" d="M186.85,15a2.62,2.62,0,0,1,1,2.24,2.77,2.77,0,0,1-1,2.35,4.43,4.43,0,0,1-2.72.77h-1.22v3.54h-1.33V14.27h2.54A4.47,4.47,0,0,1,186.85,15Zm-1,3.86a1.9,1.9,0,0,0,.61-1.61,1.78,1.78,0,0,0-.61-1.5,2.85,2.85,0,0,0-1.75-.46h-1.19v4H184A3,3,0,0,0,185.81,18.88Z"/><path class="cls-4" d="M193.41,16.46l-.24,1.26a2.47,2.47,0,0,0-.64-.09,1.37,1.37,0,0,0-1.11.51,3.73,3.73,0,0,0-.66,1.57v4.21h-1.29V16.54h1.11l.12,1.5a2.91,2.91,0,0,1,.8-1.25,1.8,1.8,0,0,1,1.18-.42A2.86,2.86,0,0,1,193.41,16.46Z"/><path class="cls-4" d="M199.79,17.41a4.29,4.29,0,0,1,.86,2.81,4.93,4.93,0,0,1-.39,2,3.06,3.06,0,0,1-1.14,1.36,3.15,3.15,0,0,1-1.76.48,2.94,2.94,0,0,1-2.42-1,4.22,4.22,0,0,1-.87-2.81,4.89,4.89,0,0,1,.39-2,3,3,0,0,1,1.13-1.36,3.15,3.15,0,0,1,1.78-.49A3,3,0,0,1,199.79,17.41Zm-4.34,2.83c0,1.88.64,2.81,1.91,2.81s1.9-.94,1.9-2.83-.63-2.81-1.89-2.81S195.45,18.35,195.45,20.24Z"/><path class="cls-4" d="M207.15,16.54v1l-3.85,5.32h3.89L207,23.92h-5.2V23l3.84-5.33h-3.52V16.54Z"/><path class="cls-4" d="M210.37,13.42v10.5h-1.29V13.57Zm4.25,3.12L211.9,19.8l3,4.12h-1.55l-2.92-4,2.71-3.35Z"/><path class="cls-4" d="M221.46,17.41a4.29,4.29,0,0,1,.86,2.81,4.93,4.93,0,0,1-.39,2,3.06,3.06,0,0,1-1.14,1.36,3.15,3.15,0,0,1-1.76.48,3,3,0,0,1-2.42-1,4.22,4.22,0,0,1-.87-2.81,4.89,4.89,0,0,1,.39-2,3,3,0,0,1,1.13-1.36,3.15,3.15,0,0,1,1.78-.49A3,3,0,0,1,221.46,17.41Zm-4.34,2.83c0,1.88.64,2.81,1.91,2.81s1.91-.94,1.91-2.83-.64-2.81-1.9-2.81S217.12,18.35,217.12,20.24Z"/><path class="cls-4" d="M230.08,23.92H229l-.1-1.15a2.78,2.78,0,0,1-1,1,2.62,2.62,0,0,1-1.33.31,2,2,0,0,1-1.51-.59,2.33,2.33,0,0,1-.55-1.66v-5.3h1.29V21.7a1.66,1.66,0,0,0,.27,1.07,1,1,0,0,0,.86.31,2.18,2.18,0,0,0,1.85-1.27V16.54h1.29Z"/><path class="cls-4" d="M241.75,17a2.37,2.37,0,0,1,.55,1.65v5.29H241V18.81c0-.95-.35-1.43-1-1.43a1.39,1.39,0,0,0-.92.32,4.33,4.33,0,0,0-.81,1v5.24H237V18.81c0-.95-.35-1.43-1-1.43a1.43,1.43,0,0,0-.94.32,4.83,4.83,0,0,0-.8,1v5.24h-1.29V16.54H234l.11,1.08a2.48,2.48,0,0,1,2.13-1.25,1.87,1.87,0,0,1,1.87,1.33,3.19,3.19,0,0,1,1-1,2.25,2.25,0,0,1,1.24-.35A1.88,1.88,0,0,1,241.75,17Z"/><path class="cls-4" d="M250.58,20.67h-4.71a2.89,2.89,0,0,0,.62,1.8,1.78,1.78,0,0,0,1.37.57,3.1,3.1,0,0,0,1-.15,4.48,4.48,0,0,0,.94-.49l.56.77a4.12,4.12,0,0,1-2.58.92,3,3,0,0,1-2.4-1,4.08,4.08,0,0,1-.86-2.77,5.19,5.19,0,0,1,.37-2,3.19,3.19,0,0,1,1.06-1.39,3,3,0,0,1,3.89.46A4.14,4.14,0,0,1,250.6,20C250.6,20.23,250.6,20.45,250.58,20.67Zm-1.25-1A2.73,2.73,0,0,0,248.9,18a1.55,1.55,0,0,0-1.31-.58c-1.05,0-1.63.78-1.72,2.33h3.46Z"/><path class="cls-4" d="M254.06,23.47a4.35,4.35,0,0,1-.25,1.64,2.51,2.51,0,0,1-.73,1,6.93,6.93,0,0,1-1.35.77l-.38-.94a3.88,3.88,0,0,0,.84-.49,1.61,1.61,0,0,0,.44-.69,3.88,3.88,0,0,0,.15-1.21v-7h1.28Zm0-10.22a.85.85,0,0,1,.25.63.81.81,0,0,1-.25.62.89.89,0,0,1-.66.25.84.84,0,0,1-.64-.25.82.82,0,0,1-.26-.62.86.86,0,0,1,.26-.63.84.84,0,0,1,.64-.25A.89.89,0,0,1,254.08,13.25Z"/><path class="cls-4" d="M265.77,17a2.34,2.34,0,0,1,.57,1.66v5.29h-1.29V18.81a1.64,1.64,0,0,0-.3-1.11,1.11,1.11,0,0,0-.86-.32,1.64,1.64,0,0,0-1,.34,3.36,3.36,0,0,0-.84,1v5.24h-1.29V16.54h1.11l.11,1.09a2.84,2.84,0,0,1,1-.92,2.48,2.48,0,0,1,1.28-.34A2.07,2.07,0,0,1,265.77,17Z"/><path class="cls-4" d="M274.62,20.67h-4.71a2.89,2.89,0,0,0,.61,1.8,1.82,1.82,0,0,0,1.38.57,3.1,3.1,0,0,0,1-.15,4.48,4.48,0,0,0,.94-.49l.56.77a4.14,4.14,0,0,1-2.58.92,3,3,0,0,1-2.4-1,4.08,4.08,0,0,1-.86-2.77,5.19,5.19,0,0,1,.37-2A3.12,3.12,0,0,1,270,16.88a2.68,2.68,0,0,1,1.63-.51,2.73,2.73,0,0,1,2.26,1,4.14,4.14,0,0,1,.78,2.67C274.64,20.23,274.63,20.45,274.62,20.67Zm-1.25-1a2.73,2.73,0,0,0-.44-1.67,1.53,1.53,0,0,0-1.3-.58c-1.05,0-1.63.78-1.72,2.33h3.46Z"/><path class="cls-4" d="M278.1,23.47a4.35,4.35,0,0,1-.25,1.64,2.51,2.51,0,0,1-.73,1,7.05,7.05,0,0,1-1.36.77l-.37-.94a3.88,3.88,0,0,0,.84-.49,1.61,1.61,0,0,0,.44-.69,3.93,3.93,0,0,0,.14-1.21v-7h1.29Zm0-10.22a.85.85,0,0,1,.25.63.81.81,0,0,1-.25.62,1,1,0,0,1-1.31,0,.85.85,0,0,1-.25-.62.89.89,0,0,1,.25-.63,1,1,0,0,1,1.31,0Z"/><path class="cls-4" d="M286,17a2.38,2.38,0,0,1,.56,1.66v5.29h-1.29V18.81a1.64,1.64,0,0,0-.29-1.11,1.15,1.15,0,0,0-.87-.32,1.66,1.66,0,0,0-1,.34,3.7,3.7,0,0,0-.84,1v5.24h-1.28V16.54H282l.11,1.09a3,3,0,0,1,1-.92,2.45,2.45,0,0,1,1.28-.34A2.08,2.08,0,0,1,286,17Z"/><path class="cls-4" d="M294.44,17.41a4.24,4.24,0,0,1,.87,2.81,4.78,4.78,0,0,1-.4,2,3.1,3.1,0,0,1-1.13,1.36,3.19,3.19,0,0,1-1.77.48,3,3,0,0,1-2.42-1,4.22,4.22,0,0,1-.87-2.81,4.89,4.89,0,0,1,.39-2,3.07,3.07,0,0,1,1.14-1.36,3.12,3.12,0,0,1,1.78-.49A3,3,0,0,1,294.44,17.41Zm-4.33,2.83c0,1.88.63,2.81,1.9,2.81s1.91-.94,1.91-2.83-.63-2.81-1.89-2.81S290.11,18.35,290.11,20.24Z"/><path class="cls-4" d="M302.94,16.54l-2.51,7.38h-1.55l-2.55-7.38h1.4l1.93,6.23,1.92-6.23Z"/><path class="cls-4" d="M310,20.67h-4.7a2.89,2.89,0,0,0,.61,1.8,1.8,1.8,0,0,0,1.38.57,3.1,3.1,0,0,0,1-.15,4.42,4.42,0,0,0,.93-.49l.56.77a4.09,4.09,0,0,1-2.57.92,3,3,0,0,1-2.41-1,4.14,4.14,0,0,1-.86-2.77,5.38,5.38,0,0,1,.37-2,3.21,3.21,0,0,1,1.07-1.39,2.68,2.68,0,0,1,1.63-.51,2.74,2.74,0,0,1,2.26,1,4.14,4.14,0,0,1,.78,2.67Q310.07,20.34,310,20.67Zm-1.19-7.74.55.63-1.89,1.58h-.86l-1.9-1.58.56-.63,1.76,1.17Zm-.05,6.71a2.73,2.73,0,0,0-.44-1.67,1.53,1.53,0,0,0-1.3-.58c-1.06,0-1.63.78-1.72,2.33h3.46Z"/><path class="cls-4" d="M313.53,23.47a4.35,4.35,0,0,1-.25,1.64,2.44,2.44,0,0,1-.74,1,6.64,6.64,0,0,1-1.35.77l-.38-.94a3.44,3.44,0,0,0,.84-.49,1.45,1.45,0,0,0,.44-.69,3.88,3.88,0,0,0,.15-1.21v-7h1.29Zm0-10.22a.86.86,0,0,1,.26.63.82.82,0,0,1-.26.62.85.85,0,0,1-.65.25.87.87,0,0,1-.65-.25.81.81,0,0,1-.25-.62.85.85,0,0,1,.25-.63.87.87,0,0,1,.65-.25A.85.85,0,0,1,313.54,13.25Z"/><path class="cls-4" d="M319.69,16.58a3.93,3.93,0,0,1,1.15.63l-.54.82a4.29,4.29,0,0,0-1-.48,3.12,3.12,0,0,0-1-.16,1.74,1.74,0,0,0-1,.26.84.84,0,0,0-.36.71.81.81,0,0,0,.34.7,4,4,0,0,0,1.24.49,4.51,4.51,0,0,1,1.84.84,1.83,1.83,0,0,1,.61,1.46,1.91,1.91,0,0,1-.84,1.67,3.65,3.65,0,0,1-2.07.57,4.07,4.07,0,0,1-2.79-1l.69-.78a3.31,3.31,0,0,0,2.07.71,2,2,0,0,0,1.16-.3,1,1,0,0,0,.42-.82,1.13,1.13,0,0,0-.15-.61,1.29,1.29,0,0,0-.53-.4,6.73,6.73,0,0,0-1.11-.37,3.79,3.79,0,0,1-1.7-.83,1.76,1.76,0,0,1-.53-1.32,1.72,1.72,0,0,1,.35-1,2.21,2.21,0,0,1,1-.73,3.52,3.52,0,0,1,1.37-.26A4.07,4.07,0,0,1,319.69,16.58Zm.52-3.65.55.63-1.89,1.58H318l-1.9-1.58.56-.63,1.76,1.17Z"/><path class="cls-4" d="M324.77,12.7l.57,1.08-3,1.21L322,14.3Zm-.47,3.84v7.38H323V16.54Z"/><path class="cls-4" d="M334.85,16.56a3.31,3.31,0,0,1,1,.61l-.61.81a3.63,3.63,0,0,0-.77-.41,2.39,2.39,0,0,0-.82-.13,1.61,1.61,0,0,0-1.39.71,3.73,3.73,0,0,0-.5,2.12,3.53,3.53,0,0,0,.49,2.06,1.63,1.63,0,0,0,1.4.67,2.53,2.53,0,0,0,.8-.13,4.64,4.64,0,0,0,.81-.43l.59.84a3.5,3.5,0,0,1-2.25.81,2.91,2.91,0,0,1-2.36-1,4.11,4.11,0,0,1-.86-2.78,5,5,0,0,1,.39-2.06,3.19,3.19,0,0,1,1.11-1.38,3,3,0,0,1,1.72-.49A3.77,3.77,0,0,1,334.85,16.56Zm.6-3.63.55.63-1.89,1.58h-.86l-1.9-1.58.56-.63,1.77,1.17Z"/><path class="cls-4" d="M339.54,12.7l.58,1.08-3,1.21-.39-.69Zm-.46,3.84v7.38h-1.29V16.54Z"/><path class="cls-4" d="M345.25,16.58a4,4,0,0,1,1.14.63l-.54.82a4.29,4.29,0,0,0-1-.48,3,3,0,0,0-1-.16,1.74,1.74,0,0,0-1,.26.84.84,0,0,0-.36.71.81.81,0,0,0,.34.7,4.07,4.07,0,0,0,1.24.49,4.56,4.56,0,0,1,1.85.84,1.86,1.86,0,0,1,.6,1.46,1.91,1.91,0,0,1-.84,1.67,3.65,3.65,0,0,1-2.07.57,4.07,4.07,0,0,1-2.79-1l.69-.78a3.33,3.33,0,0,0,2.07.71,2,2,0,0,0,1.16-.3,1,1,0,0,0,.43-.82,1.13,1.13,0,0,0-.16-.61,1.29,1.29,0,0,0-.53-.4,6.73,6.73,0,0,0-1.11-.37,3.79,3.79,0,0,1-1.7-.83,1.76,1.76,0,0,1-.52-1.32,1.71,1.71,0,0,1,.34-1,2.27,2.27,0,0,1,.95-.73,3.52,3.52,0,0,1,1.37-.26A4.17,4.17,0,0,1,345.25,16.58Z"/><path class="cls-4" d="M348.91,23.66a1.61,1.61,0,0,1-.41-1.19v-8.9l1.28-.15v9a.78.78,0,0,0,.11.45.43.43,0,0,0,.36.14,1.19,1.19,0,0,0,.47-.09l.34.9a2.08,2.08,0,0,1-1,.25A1.47,1.47,0,0,1,348.91,23.66Z"/><path class="cls-4" d="M357.87,22.87a.89.89,0,0,0,.46.32l-.29.9a2,2,0,0,1-.93-.32,1.55,1.55,0,0,1-.52-.79,2.46,2.46,0,0,1-2.2,1.11,2.33,2.33,0,0,1-1.72-.62,2.14,2.14,0,0,1-.63-1.61,2.1,2.1,0,0,1,.85-1.8,3.94,3.94,0,0,1,2.4-.63h1.14v-.55a1.44,1.44,0,0,0-.38-1.12,1.76,1.76,0,0,0-1.17-.34,6.34,6.34,0,0,0-2,.4l-.32-.94a7.4,7.4,0,0,1,2.55-.51,2.69,2.69,0,0,1,1.95.64,2.42,2.42,0,0,1,.64,1.81V22.2A1.12,1.12,0,0,0,357.87,22.87ZM356.43,22v-1.7h-1c-1.37,0-2,.51-2,1.51a1.39,1.39,0,0,0,.33,1,1.26,1.26,0,0,0,.95.33A1.94,1.94,0,0,0,356.43,22Z"/></svg>